# MagicaVoxel @ Ephtracy

# group
o 

# material
mtllib Personnage.mtl
usemtl palette

# normals
vn -1 0 0
vn 1 0 0
vn 0 0 1
vn 0 0 -1
vn 0 -1 0
vn 0 1 0

# texcoords
vt 0.939453 0.5
vt 0.970703 0.5
vt 0.974609 0.5
vt 0.990234 0.5
vt 0.994141 0.5

# verts
v -0.7 1.1 0.1
v -0.7 1.1 0
v -0.7 1.6 0.1
v -0.7 1.6 0
v -0.6 0.9 0.2
v -0.6 0.9 -0.1
v -0.6 1.1 0.1
v -0.6 1.1 0
v -0.6 1.4 0.2
v -0.6 1.4 0.1
v -0.6 1.4 0
v -0.6 1.4 -0.1
v -0.6 1.6 0.1
v -0.6 1.6 0
v -0.6 1.8 0.1
v -0.6 1.8 0
v -0.4 0.3 0.1
v -0.4 0.3 0
v -0.4 0.5 0.1
v -0.4 0.5 0
v -0.4 0.8 0.3
v -0.4 0.8 0.1
v -0.4 0.8 0
v -0.4 0.8 -0.2
v -0.4 0.9 0.2
v -0.4 0.9 -0.1
v -0.4 1.4 0.2
v -0.4 1.4 -0.1
v -0.4 1.5 0.3
v -0.4 1.5 -0.2
v -0.4 1.8 0.1
v -0.4 1.8 0
v -0.4 1.9 0.1
v -0.4 1.9 0
v -0.3 0.4 0.2
v -0.3 0.4 0.1
v -0.3 0.4 0
v -0.3 0.4 -0.1
v -0.3 0.5 0.1
v -0.3 0.5 0
v -0.3 0.8 0.2
v -0.3 0.8 0.1
v -0.3 0.8 0
v -0.3 0.8 -0.1
v -0.3 1.5 0.2
v -0.3 1.5 -0.1
v -0.3 1.6 0.2
v -0.3 1.6 -0.1
v -0.2 0 0.2
v -0.2 0 0
v -0.2 0.1 0.2
v -0.2 0.1 0.1
v -0.2 0.1 0
v -0.2 0.4 0.1
v -0.2 0.4 0
v 0.1 0 0.2
v 0.1 0 0
v 0.1 0.1 0.2
v 0.1 0.1 0.1
v 0.1 0.1 0
v 0.1 0.4 0.1
v 0.1 0.4 0
v 0.3 0.3 0.1
v 0.3 0.3 0
v 0.3 0.4 0.1
v 0.3 0.4 0
v 0.3 0.9 0.3
v 0.3 0.9 0.2
v 0.3 0.9 0.1
v 0.3 0.9 -0.1
v 0.3 1.4 0.3
v 0.3 1.4 0.2
v 0.3 1.4 0.1
v 0.3 1.4 -0.1
v 0.4 1.7 0.1
v 0.4 1.7 0
v 0.4 1.8 0.1
v 0.4 1.8 0
v 0.5 1.6 0.1
v 0.5 1.6 0
v 0.5 1.7 0.1
v 0.5 1.7 0
v 0.6 1.4 0.1
v 0.6 1.4 0
v 0.6 1.6 0.1
v 0.6 1.6 0
v -0.6 1.4 0.1
v -0.6 1.4 0
v -0.6 1.6 0.1
v -0.6 1.6 0
v -0.5 1.6 0.1
v -0.5 1.6 0
v -0.5 1.7 0.1
v -0.5 1.7 0
v -0.4 1.7 0.1
v -0.4 1.7 0
v -0.4 1.8 0.1
v -0.4 1.8 0
v -0.3 0.3 0.1
v -0.3 0.3 0
v -0.3 0.4 0.1
v -0.3 0.4 0
v -0.3 0.9 0.3
v -0.3 0.9 0.2
v -0.3 0.9 0.1
v -0.3 0.9 -0.1
v -0.3 1.4 0.3
v -0.3 1.4 0.2
v -0.3 1.4 0.1
v -0.3 1.4 -0.1
v -0.1 0 0.2
v -0.1 0 0
v -0.1 0.1 0.2
v -0.1 0.1 0.1
v -0.1 0.1 0
v -0.1 0.4 0.1
v -0.1 0.4 0
v 0.2 0 0.2
v 0.2 0 0
v 0.2 0.1 0.2
v 0.2 0.1 0.1
v 0.2 0.1 0
v 0.2 0.4 0.1
v 0.2 0.4 0
v 0.3 0.4 0.2
v 0.3 0.4 0.1
v 0.3 0.4 0
v 0.3 0.4 -0.1
v 0.3 0.5 0.1
v 0.3 0.5 0
v 0.3 0.8 0.2
v 0.3 0.8 0.1
v 0.3 0.8 0
v 0.3 0.8 -0.1
v 0.3 1.5 0.2
v 0.3 1.5 -0.1
v 0.3 1.6 0.2
v 0.3 1.6 -0.1
v 0.4 0.3 0.1
v 0.4 0.3 0
v 0.4 0.5 0.1
v 0.4 0.5 0
v 0.4 0.8 0.3
v 0.4 0.8 0.1
v 0.4 0.8 0
v 0.4 0.8 -0.2
v 0.4 0.9 0.2
v 0.4 0.9 -0.1
v 0.4 1.4 0.2
v 0.4 1.4 -0.1
v 0.4 1.5 0.3
v 0.4 1.5 -0.2
v 0.4 1.8 0.1
v 0.4 1.8 0
v 0.4 1.9 0.1
v 0.4 1.9 0
v 0.6 0.9 0.2
v 0.6 0.9 -0.1
v 0.6 1.1 0.1
v 0.6 1.1 0
v 0.6 1.4 0.2
v 0.6 1.4 0.1
v 0.6 1.4 0
v 0.6 1.4 -0.1
v 0.6 1.6 0.1
v 0.6 1.6 0
v 0.6 1.8 0.1
v 0.6 1.8 0
v 0.7 1.1 0.1
v 0.7 1.1 0
v 0.7 1.6 0.1
v 0.7 1.6 0
v -0.4 0.8 0.3
v -0.4 1.5 0.3
v -0.3 0.9 0.3
v -0.3 1.4 0.3
v 0.3 0.9 0.3
v 0.3 1.4 0.3
v 0.4 0.8 0.3
v 0.4 1.5 0.3
v -0.6 0.9 0.2
v -0.6 1.4 0.2
v -0.5 0.9 0.2
v -0.5 1.4 0.2
v -0.4 0.9 0.2
v -0.4 1.4 0.2
v -0.3 0.4 0.2
v -0.3 0.8 0.2
v -0.3 0.9 0.2
v -0.3 1.4 0.2
v -0.3 1.5 0.2
v -0.3 1.6 0.2
v -0.2 0 0.2
v -0.2 0.1 0.2
v -0.2 1 0.2
v -0.2 1.3 0.2
v -0.1 0 0.2
v -0.1 0.1 0.2
v -0.1 0.7 0.2
v -0.1 0.8 0.2
v -0.1 1 0.2
v -0.1 1.3 0.2
v 0.1 0 0.2
v 0.1 0.1 0.2
v 0.1 0.7 0.2
v 0.1 0.8 0.2
v 0.1 1 0.2
v 0.1 1.3 0.2
v 0.2 0 0.2
v 0.2 0.1 0.2
v 0.2 1 0.2
v 0.2 1.3 0.2
v 0.3 0.4 0.2
v 0.3 0.8 0.2
v 0.3 0.9 0.2
v 0.3 1.4 0.2
v 0.3 1.5 0.2
v 0.3 1.6 0.2
v 0.4 0.9 0.2
v 0.4 1.4 0.2
v 0.5 0.9 0.2
v 0.5 1.4 0.2
v 0.6 0.9 0.2
v 0.6 1.4 0.2
v -0.7 1.1 0.1
v -0.7 1.6 0.1
v -0.6 1.1 0.1
v -0.6 1.4 0.1
v -0.6 1.6 0.1
v -0.6 1.8 0.1
v -0.5 1.6 0.1
v -0.5 1.7 0.1
v -0.4 0.3 0.1
v -0.4 0.5 0.1
v -0.4 0.8 0.1
v -0.4 1.7 0.1
v -0.4 1.8 0.1
v -0.4 1.9 0.1
v -0.3 0.3 0.1
v -0.3 0.4 0.1
v -0.3 0.5 0.1
v -0.3 0.8 0.1
v -0.2 0.1 0.1
v -0.2 0.4 0.1
v -0.1 0.1 0.1
v -0.1 0.4 0.1
v 0.1 0.1 0.1
v 0.1 0.4 0.1
v 0.2 0.1 0.1
v 0.2 0.4 0.1
v 0.3 0.3 0.1
v 0.3 0.4 0.1
v 0.3 0.5 0.1
v 0.3 0.8 0.1
v 0.4 0.3 0.1
v 0.4 0.5 0.1
v 0.4 0.8 0.1
v 0.4 1.7 0.1
v 0.4 1.8 0.1
v 0.4 1.9 0.1
v 0.5 1.6 0.1
v 0.5 1.7 0.1
v 0.6 1.1 0.1
v 0.6 1.4 0.1
v 0.6 1.6 0.1
v 0.6 1.8 0.1
v 0.7 1.1 0.1
v 0.7 1.6 0.1
v -0.3 0.9 -0.1
v -0.3 1.4 -0.1
v 0.3 0.9 -0.1
v 0.3 1.4 -0.1
v -0.3 0.9 0.1
v -0.3 1.4 0.1
v -0.2 1 0.1
v -0.2 1.3 0.1
v -0.1 1 0.1
v -0.1 1.3 0.1
v 0.1 1 0.1
v 0.1 1.3 0.1
v 0.2 1 0.1
v 0.2 1.3 0.1
v 0.3 0.9 0.1
v 0.3 1.4 0.1
v -0.7 1.1 0
v -0.7 1.6 0
v -0.6 1.1 0
v -0.6 1.4 0
v -0.6 1.6 0
v -0.6 1.8 0
v -0.5 1.6 0
v -0.5 1.7 0
v -0.4 0.3 0
v -0.4 0.5 0
v -0.4 0.8 0
v -0.4 1.7 0
v -0.4 1.8 0
v -0.4 1.9 0
v -0.3 0.3 0
v -0.3 0.4 0
v -0.3 0.5 0
v -0.3 0.8 0
v -0.2 0 0
v -0.2 0.1 0
v -0.2 0.4 0
v -0.1 0 0
v -0.1 0.1 0
v -0.1 0.4 0
v 0.1 0 0
v 0.1 0.1 0
v 0.1 0.4 0
v 0.2 0 0
v 0.2 0.1 0
v 0.2 0.4 0
v 0.3 0.3 0
v 0.3 0.4 0
v 0.3 0.5 0
v 0.3 0.8 0
v 0.4 0.3 0
v 0.4 0.5 0
v 0.4 0.8 0
v 0.4 1.7 0
v 0.4 1.8 0
v 0.4 1.9 0
v 0.5 1.6 0
v 0.5 1.7 0
v 0.6 1.1 0
v 0.6 1.4 0
v 0.6 1.6 0
v 0.6 1.8 0
v 0.7 1.1 0
v 0.7 1.6 0
v -0.6 0.9 -0.1
v -0.6 1.4 -0.1
v -0.5 0.9 -0.1
v -0.5 1.4 -0.1
v -0.4 0.9 -0.1
v -0.4 1.4 -0.1
v -0.3 0.4 -0.1
v -0.3 0.8 -0.1
v -0.3 1.5 -0.1
v -0.3 1.6 -0.1
v 0.3 0.4 -0.1
v 0.3 0.8 -0.1
v 0.3 1.5 -0.1
v 0.3 1.6 -0.1
v 0.4 0.9 -0.1
v 0.4 1.4 -0.1
v 0.5 0.9 -0.1
v 0.5 1.4 -0.1
v 0.6 0.9 -0.1
v 0.6 1.4 -0.1
v -0.4 0.8 -0.2
v -0.4 1.5 -0.2
v 0.4 0.8 -0.2
v 0.4 1.5 -0.2
v -0.2 0 0.2
v -0.1 0 0.2
v 0.1 0 0.2
v 0.2 0 0.2
v -0.2 0 0
v -0.1 0 0
v 0.1 0 0
v 0.2 0 0
v -0.4 0.3 0.1
v -0.3 0.3 0.1
v 0.3 0.3 0.1
v 0.4 0.3 0.1
v -0.4 0.3 0
v -0.3 0.3 0
v 0.3 0.3 0
v 0.4 0.3 0
v -0.3 0.4 0.2
v 0.3 0.4 0.2
v -0.3 0.4 0.1
v -0.2 0.4 0.1
v -0.1 0.4 0.1
v 0.1 0.4 0.1
v 0.2 0.4 0.1
v 0.3 0.4 0.1
v -0.3 0.4 0
v -0.2 0.4 0
v -0.1 0.4 0
v 0.1 0.4 0
v 0.2 0.4 0
v 0.3 0.4 0
v -0.3 0.4 -0.1
v 0.3 0.4 -0.1
v -0.4 0.8 0.3
v 0.4 0.8 0.3
v -0.3 0.8 0.2
v -0.1 0.8 0.2
v 0.1 0.8 0.2
v 0.3 0.8 0.2
v -0.4 0.8 0.1
v -0.3 0.8 0.1
v 0.3 0.8 0.1
v 0.4 0.8 0.1
v -0.4 0.8 0
v -0.3 0.8 0
v 0.3 0.8 0
v 0.4 0.8 0
v -0.3 0.8 -0.1
v 0.3 0.8 -0.1
v -0.4 0.8 -0.2
v 0.4 0.8 -0.2
v -0.6 0.9 0.2
v -0.5 0.9 0.2
v -0.4 0.9 0.2
v 0.4 0.9 0.2
v 0.5 0.9 0.2
v 0.6 0.9 0.2
v -0.6 0.9 -0.1
v -0.5 0.9 -0.1
v -0.4 0.9 -0.1
v 0.4 0.9 -0.1
v 0.5 0.9 -0.1
v 0.6 0.9 -0.1
v -0.7 1.1 0.1
v -0.6 1.1 0.1
v 0.6 1.1 0.1
v 0.7 1.1 0.1
v -0.7 1.1 0
v -0.6 1.1 0
v 0.6 1.1 0
v 0.7 1.1 0
v -0.3 1.4 0.3
v 0.3 1.4 0.3
v -0.3 1.4 0.2
v 0.3 1.4 0.2
v -0.3 1.4 0.1
v 0.3 1.4 0.1
v -0.3 1.4 -0.1
v 0.3 1.4 -0.1
v -0.6 1.6 0.1
v -0.5 1.6 0.1
v 0.5 1.6 0.1
v 0.6 1.6 0.1
v -0.6 1.6 0
v -0.5 1.6 0
v 0.5 1.6 0
v 0.6 1.6 0
v -0.5 1.7 0.1
v -0.4 1.7 0.1
v 0.4 1.7 0.1
v 0.5 1.7 0.1
v -0.5 1.7 0
v -0.4 1.7 0
v 0.4 1.7 0
v 0.5 1.7 0
v -0.4 1.8 0.1
v 0.4 1.8 0.1
v -0.4 1.8 0
v 0.4 1.8 0
v -0.2 0.1 0.2
v -0.1 0.1 0.2
v 0.1 0.1 0.2
v 0.2 0.1 0.2
v -0.2 0.1 0.1
v -0.1 0.1 0.1
v 0.1 0.1 0.1
v 0.2 0.1 0.1
v -0.3 0.9 0.3
v 0.3 0.9 0.3
v -0.3 0.9 0.2
v 0.3 0.9 0.2
v -0.3 0.9 0.1
v 0.3 0.9 0.1
v -0.3 0.9 -0.1
v 0.3 0.9 -0.1
v -0.6 1.4 0.2
v -0.5 1.4 0.2
v -0.4 1.4 0.2
v 0.4 1.4 0.2
v 0.5 1.4 0.2
v 0.6 1.4 0.2
v -0.6 1.4 0.1
v 0.6 1.4 0.1
v -0.6 1.4 0
v 0.6 1.4 0
v -0.6 1.4 -0.1
v -0.5 1.4 -0.1
v -0.4 1.4 -0.1
v 0.4 1.4 -0.1
v 0.5 1.4 -0.1
v 0.6 1.4 -0.1
v -0.4 1.5 0.3
v 0.4 1.5 0.3
v -0.3 1.5 0.2
v 0.3 1.5 0.2
v -0.3 1.5 -0.1
v 0.3 1.5 -0.1
v -0.4 1.5 -0.2
v 0.4 1.5 -0.2
v -0.3 1.6 0.2
v 0.3 1.6 0.2
v -0.7 1.6 0.1
v -0.6 1.6 0.1
v 0.6 1.6 0.1
v 0.7 1.6 0.1
v -0.7 1.6 0
v -0.6 1.6 0
v 0.6 1.6 0
v 0.7 1.6 0
v -0.3 1.6 -0.1
v 0.3 1.6 -0.1
v -0.6 1.8 0.1
v -0.4 1.8 0.1
v 0.4 1.8 0.1
v 0.6 1.8 0.1
v -0.6 1.8 0
v -0.4 1.8 0
v 0.4 1.8 0
v 0.6 1.8 0
v -0.4 1.9 0.1
v 0.4 1.9 0.1
v -0.4 1.9 0
v 0.4 1.9 0

# faces
f 3/1/1 2/1/1 1/1/1
f 4/1/1 2/1/1 3/1/1
f 7/1/1 6/1/1 5/1/1
f 8/1/1 6/1/1 7/1/1
f 9/1/1 7/1/1 5/1/1
f 10/1/1 7/1/1 9/1/1
f 11/1/1 6/1/1 8/1/1
f 12/1/1 6/1/1 11/1/1
f 15/1/1 14/1/1 13/1/1
f 16/1/1 14/1/1 15/1/1
f 19/4/1 18/4/1 17/4/1
f 20/4/1 18/4/1 19/4/1
f 22/3/1 20/3/1 19/3/1
f 23/3/1 20/3/1 22/3/1
f 25/3/1 23/3/1 22/3/1
f 25/3/1 24/3/1 23/3/1
f 25/3/1 22/3/1 21/3/1
f 26/3/1 24/3/1 25/3/1
f 27/3/1 25/3/1 21/3/1
f 28/3/1 24/3/1 26/3/1
f 29/3/1 27/3/1 21/3/1
f 29/3/1 28/3/1 27/3/1
f 30/3/1 24/3/1 28/3/1
f 30/3/1 28/3/1 29/3/1
f 33/1/1 32/1/1 31/1/1
f 34/1/1 32/1/1 33/1/1
f 39/3/1 36/3/1 35/3/1
f 40/3/1 38/3/1 37/3/1
f 41/3/1 39/3/1 35/3/1
f 42/3/1 39/3/1 41/3/1
f 43/3/1 38/3/1 40/3/1
f 44/3/1 38/3/1 43/3/1
f 47/3/1 46/3/1 45/3/1
f 48/3/1 46/3/1 47/3/1
f 51/5/1 50/5/1 49/5/1
f 52/5/1 50/5/1 51/5/1
f 53/5/1 50/5/1 52/5/1
f 54/2/1 53/2/1 52/2/1
f 55/2/1 53/2/1 54/2/1
f 58/5/1 57/5/1 56/5/1
f 59/5/1 57/5/1 58/5/1
f 60/5/1 57/5/1 59/5/1
f 61/2/1 60/2/1 59/2/1
f 62/2/1 60/2/1 61/2/1
f 65/4/1 64/4/1 63/4/1
f 66/4/1 64/4/1 65/4/1
f 71/3/1 68/3/1 67/3/1
f 72/3/1 68/3/1 71/3/1
f 73/2/1 70/2/1 69/2/1
f 74/2/1 70/2/1 73/2/1
f 77/1/1 76/1/1 75/1/1
f 78/1/1 76/1/1 77/1/1
f 81/1/1 80/1/1 79/1/1
f 82/1/1 80/1/1 81/1/1
f 85/1/1 84/1/1 83/1/1
f 86/1/1 84/1/1 85/1/1
f 87/1/2 88/1/2 89/1/2
f 89/1/2 88/1/2 90/1/2
f 91/1/2 92/1/2 93/1/2
f 93/1/2 92/1/2 94/1/2
f 95/1/2 96/1/2 97/1/2
f 97/1/2 96/1/2 98/1/2
f 99/4/2 100/4/2 101/4/2
f 101/4/2 100/4/2 102/4/2
f 103/3/2 104/3/2 107/3/2
f 107/3/2 104/3/2 108/3/2
f 105/2/2 106/2/2 109/2/2
f 109/2/2 106/2/2 110/2/2
f 111/5/2 112/5/2 113/5/2
f 113/5/2 112/5/2 114/5/2
f 114/5/2 112/5/2 115/5/2
f 114/2/2 115/2/2 116/2/2
f 116/2/2 115/2/2 117/2/2
f 118/5/2 119/5/2 120/5/2
f 120/5/2 119/5/2 121/5/2
f 121/5/2 119/5/2 122/5/2
f 121/2/2 122/2/2 123/2/2
f 123/2/2 122/2/2 124/2/2
f 125/3/2 126/3/2 129/3/2
f 127/3/2 128/3/2 130/3/2
f 125/3/2 129/3/2 131/3/2
f 131/3/2 129/3/2 132/3/2
f 130/3/2 128/3/2 133/3/2
f 133/3/2 128/3/2 134/3/2
f 135/3/2 136/3/2 137/3/2
f 137/3/2 136/3/2 138/3/2
f 139/4/2 140/4/2 141/4/2
f 141/4/2 140/4/2 142/4/2
f 141/3/2 142/3/2 144/3/2
f 144/3/2 142/3/2 145/3/2
f 144/3/2 145/3/2 147/3/2
f 145/3/2 146/3/2 147/3/2
f 143/3/2 144/3/2 147/3/2
f 147/3/2 146/3/2 148/3/2
f 143/3/2 147/3/2 149/3/2
f 148/3/2 146/3/2 150/3/2
f 143/3/2 149/3/2 151/3/2
f 149/3/2 150/3/2 151/3/2
f 150/3/2 146/3/2 152/3/2
f 151/3/2 150/3/2 152/3/2
f 153/1/2 154/1/2 155/1/2
f 155/1/2 154/1/2 156/1/2
f 157/1/2 158/1/2 159/1/2
f 159/1/2 158/1/2 160/1/2
f 157/1/2 159/1/2 161/1/2
f 161/1/2 159/1/2 162/1/2
f 160/1/2 158/1/2 163/1/2
f 163/1/2 158/1/2 164/1/2
f 165/1/2 166/1/2 167/1/2
f 167/1/2 166/1/2 168/1/2
f 169/1/2 170/1/2 171/1/2
f 171/1/2 170/1/2 172/1/2
f 175/3/3 174/3/3 173/3/3
f 176/3/3 174/3/3 175/3/3
f 177/3/3 175/3/3 173/3/3
f 178/3/3 174/3/3 176/3/3
f 179/3/3 177/3/3 173/3/3
f 179/3/3 178/3/3 177/3/3
f 180/3/3 174/3/3 178/3/3
f 180/3/3 178/3/3 179/3/3
f 183/1/3 182/1/3 181/1/3
f 184/1/3 182/1/3 183/1/3
f 185/2/3 184/2/3 183/2/3
f 186/2/3 184/2/3 185/2/3
f 195/4/3 190/4/3 189/4/3
f 196/4/3 190/4/3 195/4/3
f 197/5/3 194/5/3 193/5/3
f 198/5/3 194/5/3 197/5/3
f 199/3/3 188/3/3 187/3/3
f 200/3/3 188/3/3 199/3/3
f 201/4/3 195/4/3 189/4/3
f 201/2/3 196/2/3 195/2/3
f 202/4/3 190/4/3 196/4/3
f 202/2/3 196/2/3 201/2/3
f 205/4/3 200/4/3 199/4/3
f 205/3/3 199/3/3 187/3/3
f 206/4/3 200/4/3 205/4/3
f 207/4/3 201/4/3 189/4/3
f 207/4/3 202/4/3 201/4/3
f 208/4/3 190/4/3 202/4/3
f 208/4/3 202/4/3 207/4/3
f 209/5/3 204/5/3 203/5/3
f 210/5/3 204/5/3 209/5/3
f 211/4/3 207/4/3 189/4/3
f 211/2/3 208/2/3 207/2/3
f 212/4/3 190/4/3 208/4/3
f 212/2/3 208/2/3 211/2/3
f 213/3/3 206/3/3 205/3/3
f 213/3/3 205/3/3 187/3/3
f 214/3/3 206/3/3 213/3/3
f 215/4/3 212/4/3 211/4/3
f 215/4/3 211/4/3 189/4/3
f 216/4/3 190/4/3 212/4/3
f 216/4/3 212/4/3 215/4/3
f 217/3/3 192/3/3 191/3/3
f 218/3/3 192/3/3 217/3/3
f 221/2/3 220/2/3 219/2/3
f 222/2/3 220/2/3 221/2/3
f 223/1/3 222/1/3 221/1/3
f 224/1/3 222/1/3 223/1/3
f 227/1/3 226/1/3 225/1/3
f 228/1/3 226/1/3 227/1/3
f 229/1/3 226/1/3 228/1/3
f 231/1/3 230/1/3 229/1/3
f 232/1/3 230/1/3 231/1/3
f 236/1/3 230/1/3 232/1/3
f 237/1/3 230/1/3 236/1/3
f 239/4/3 234/4/3 233/4/3
f 240/4/3 234/4/3 239/4/3
f 241/3/3 235/3/3 234/3/3
f 241/4/3 234/4/3 240/4/3
f 242/3/3 235/3/3 241/3/3
f 245/2/3 244/2/3 243/2/3
f 246/2/3 244/2/3 245/2/3
f 249/2/3 248/2/3 247/2/3
f 250/2/3 248/2/3 249/2/3
f 255/4/3 252/4/3 251/4/3
f 255/4/3 253/4/3 252/4/3
f 256/3/3 254/3/3 253/3/3
f 256/4/3 253/4/3 255/4/3
f 257/3/3 254/3/3 256/3/3
f 259/1/3 238/1/3 237/1/3
f 260/1/3 238/1/3 259/1/3
f 262/1/3 259/1/3 258/1/3
f 265/1/3 262/1/3 261/1/3
f 266/1/3 259/1/3 262/1/3
f 266/1/3 262/1/3 265/1/3
f 267/1/3 265/1/3 264/1/3
f 267/1/3 264/1/3 263/1/3
f 268/1/3 265/1/3 267/1/3
f 271/3/3 270/3/3 269/3/3
f 272/3/3 270/3/3 271/3/3
f 273/4/4 274/4/4 275/4/4
f 275/4/4 274/4/4 276/4/4
f 273/4/4 275/4/4 277/4/4
f 275/2/4 276/2/4 277/2/4
f 276/4/4 274/4/4 278/4/4
f 277/2/4 276/2/4 278/2/4
f 273/4/4 277/4/4 279/4/4
f 277/4/4 278/4/4 279/4/4
f 278/4/4 274/4/4 280/4/4
f 279/4/4 278/4/4 280/4/4
f 273/4/4 279/4/4 281/4/4
f 279/2/4 280/2/4 281/2/4
f 280/4/4 274/4/4 282/4/4
f 281/2/4 280/2/4 282/2/4
f 273/4/4 281/4/4 283/4/4
f 281/4/4 282/4/4 283/4/4
f 282/4/4 274/4/4 284/4/4
f 283/4/4 282/4/4 284/4/4
f 285/1/4 286/1/4 287/1/4
f 287/1/4 286/1/4 288/1/4
f 288/1/4 286/1/4 289/1/4
f 289/1/4 290/1/4 291/1/4
f 291/1/4 290/1/4 292/1/4
f 292/1/4 290/1/4 296/1/4
f 296/1/4 290/1/4 297/1/4
f 293/4/4 294/4/4 299/4/4
f 299/4/4 294/4/4 300/4/4
f 294/3/4 295/3/4 301/3/4
f 300/4/4 294/4/4 301/4/4
f 301/3/4 295/3/4 302/3/4
f 303/5/4 304/5/4 306/5/4
f 304/2/4 305/2/4 307/2/4
f 306/5/4 304/5/4 307/5/4
f 307/2/4 305/2/4 308/2/4
f 309/5/4 310/5/4 312/5/4
f 310/2/4 311/2/4 313/2/4
f 312/5/4 310/5/4 313/5/4
f 313/2/4 311/2/4 314/2/4
f 315/4/4 316/4/4 319/4/4
f 316/4/4 317/4/4 319/4/4
f 317/3/4 318/3/4 320/3/4
f 319/4/4 317/4/4 320/4/4
f 320/3/4 318/3/4 321/3/4
f 297/1/4 298/1/4 323/1/4
f 323/1/4 298/1/4 324/1/4
f 322/1/4 323/1/4 326/1/4
f 325/1/4 326/1/4 329/1/4
f 326/1/4 323/1/4 330/1/4
f 329/1/4 326/1/4 330/1/4
f 328/1/4 329/1/4 331/1/4
f 327/1/4 328/1/4 331/1/4
f 331/1/4 329/1/4 332/1/4
f 333/1/4 334/1/4 335/1/4
f 335/1/4 334/1/4 336/1/4
f 335/2/4 336/2/4 337/2/4
f 337/2/4 336/2/4 338/2/4
f 339/3/4 340/3/4 343/3/4
f 343/3/4 340/3/4 344/3/4
f 341/3/4 342/3/4 345/3/4
f 345/3/4 342/3/4 346/3/4
f 347/2/4 348/2/4 349/2/4
f 349/2/4 348/2/4 350/2/4
f 349/1/4 350/1/4 351/1/4
f 351/1/4 350/1/4 352/1/4
f 353/3/4 354/3/4 355/3/4
f 355/3/4 354/3/4 356/3/4
f 361/5/5 358/5/5 357/5/5
f 362/5/5 358/5/5 361/5/5
f 363/5/5 360/5/5 359/5/5
f 364/5/5 360/5/5 363/5/5
f 369/4/5 366/4/5 365/4/5
f 370/4/5 366/4/5 369/4/5
f 371/4/5 368/4/5 367/4/5
f 372/4/5 368/4/5 371/4/5
f 375/3/5 374/3/5 373/3/5
f 376/3/5 374/3/5 375/3/5
f 377/3/5 374/3/5 376/3/5
f 378/3/5 374/3/5 377/3/5
f 379/3/5 374/3/5 378/3/5
f 380/3/5 374/3/5 379/3/5
f 381/3/5 376/3/5 375/3/5
f 382/3/5 376/3/5 381/3/5
f 383/3/5 378/3/5 377/3/5
f 384/3/5 378/3/5 383/3/5
f 385/3/5 380/3/5 379/3/5
f 386/3/5 380/3/5 385/3/5
f 387/3/5 384/3/5 383/3/5
f 387/3/5 382/3/5 381/3/5
f 387/3/5 386/3/5 385/3/5
f 387/3/5 385/3/5 384/3/5
f 387/3/5 383/3/5 382/3/5
f 388/3/5 386/3/5 387/3/5
f 391/3/5 390/3/5 389/3/5
f 392/3/5 390/3/5 391/3/5
f 393/3/5 390/3/5 392/3/5
f 394/3/5 390/3/5 393/3/5
f 395/3/5 391/3/5 389/3/5
f 396/3/5 391/3/5 395/3/5
f 397/3/5 390/3/5 394/3/5
f 398/3/5 390/3/5 397/3/5
f 403/3/5 400/3/5 399/3/5
f 404/3/5 402/3/5 401/3/5
f 405/3/5 403/3/5 399/3/5
f 405/3/5 404/3/5 403/3/5
f 406/3/5 402/3/5 404/3/5
f 406/3/5 404/3/5 405/3/5
f 413/1/5 408/1/5 407/1/5
f 414/2/5 409/2/5 408/2/5
f 414/1/5 408/1/5 413/1/5
f 415/2/5 409/2/5 414/2/5
f 416/2/5 411/2/5 410/2/5
f 417/1/5 412/1/5 411/1/5
f 417/2/5 411/2/5 416/2/5
f 418/1/5 412/1/5 417/1/5
f 423/1/5 420/1/5 419/1/5
f 424/1/5 420/1/5 423/1/5
f 425/1/5 422/1/5 421/1/5
f 426/1/5 422/1/5 425/1/5
f 429/3/5 428/3/5 427/3/5
f 430/3/5 428/3/5 429/3/5
f 433/2/5 432/2/5 431/2/5
f 434/2/5 432/2/5 433/2/5
f 439/1/5 436/1/5 435/1/5
f 440/1/5 436/1/5 439/1/5
f 441/1/5 438/1/5 437/1/5
f 442/1/5 438/1/5 441/1/5
f 447/1/5 444/1/5 443/1/5
f 448/1/5 444/1/5 447/1/5
f 449/1/5 446/1/5 445/1/5
f 450/1/5 446/1/5 449/1/5
f 453/1/5 452/1/5 451/1/5
f 454/1/5 452/1/5 453/1/5
f 455/5/6 456/5/6 459/5/6
f 459/5/6 456/5/6 460/5/6
f 457/5/6 458/5/6 461/5/6
f 461/5/6 458/5/6 462/5/6
f 463/3/6 464/3/6 465/3/6
f 465/3/6 464/3/6 466/3/6
f 467/2/6 468/2/6 469/2/6
f 469/2/6 468/2/6 470/2/6
f 471/1/6 472/1/6 477/1/6
f 475/1/6 476/1/6 478/1/6
f 477/1/6 472/1/6 479/1/6
f 475/1/6 478/1/6 480/1/6
f 479/1/6 472/1/6 481/1/6
f 472/2/6 473/2/6 482/2/6
f 481/1/6 472/1/6 482/1/6
f 482/2/6 473/2/6 483/2/6
f 474/2/6 475/2/6 484/2/6
f 475/1/6 480/1/6 485/1/6
f 484/2/6 475/2/6 485/2/6
f 485/1/6 480/1/6 486/1/6
f 487/3/6 488/3/6 489/3/6
f 489/3/6 488/3/6 490/3/6
f 487/3/6 489/3/6 491/3/6
f 490/3/6 488/3/6 492/3/6
f 487/3/6 491/3/6 493/3/6
f 491/3/6 492/3/6 493/3/6
f 492/3/6 488/3/6 494/3/6
f 493/3/6 492/3/6 494/3/6
f 497/1/6 498/1/6 501/1/6
f 501/1/6 498/1/6 502/1/6
f 499/1/6 500/1/6 503/1/6
f 503/1/6 500/1/6 504/1/6
f 495/3/6 496/3/6 505/3/6
f 505/3/6 496/3/6 506/3/6
f 507/1/6 508/1/6 511/1/6
f 511/1/6 508/1/6 512/1/6
f 509/1/6 510/1/6 513/1/6
f 513/1/6 510/1/6 514/1/6
f 515/1/6 516/1/6 517/1/6
f 517/1/6 516/1/6 518/1/6
