# Blender 3.4.0
# www.blender.org
mtllib SmokeParticle3D.mtl
o Cube.006
v -1.405168 -0.166254 0.871127
v -0.988011 -0.583410 0.871127
v -0.988011 -0.166254 0.871127
v -1.405168 -0.583410 0.453971
v -1.405168 -0.166254 0.453971
v -1.405168 -0.583410 0.036814
v -1.405168 -0.166254 0.036814
v -0.988011 -0.583410 0.453971
v -0.988011 -0.166254 0.453971
v -0.988011 -0.583410 0.036814
v -0.988011 -0.166254 0.036814
v -0.570855 -0.583410 0.871127
v -0.570855 -0.166254 0.871127
v -0.153699 -0.583410 0.871127
v -0.153699 -0.166254 0.871127
v -0.570855 -1.000566 0.453971
v -0.570855 -1.000566 0.036814
v -0.153699 -1.000566 0.453971
v -0.153699 -1.000566 0.036814
v -0.570855 -0.583410 0.453971
v -0.570855 -0.583410 0.036814
v -0.153699 -0.583410 0.453971
v -1.405168 0.250902 0.871127
v -0.988011 0.250902 0.871127
v -0.988011 0.668059 0.871127
v -1.405168 0.250902 0.453971
v -1.405168 0.668059 0.453971
v -1.405168 0.250902 0.036814
v -1.405168 0.668059 0.036814
v -0.988011 0.250902 0.453971
v -0.988011 0.668059 0.453971
v -0.988011 0.250902 0.036814
v -0.988011 0.668059 0.036814
v -0.570855 0.250902 0.871127
v -0.570855 0.668059 0.871127
v -0.153699 0.250902 0.871127
v -0.153699 0.668059 0.871127
v -0.570855 0.250902 0.453971
v -0.570855 0.668059 0.453971
v -0.570855 0.668059 0.036814
v -0.153699 0.250902 0.453971
v -0.153699 0.668059 0.453971
v -0.570855 1.085215 0.453971
v -0.570855 1.085215 0.036814
v -0.153699 1.085215 0.453971
v -0.153699 1.085215 0.036814
v -1.405168 -0.166254 -0.380342
v -0.988011 -0.583410 -0.380342
v -0.988011 -0.166254 -0.380342
v -0.988011 -0.583410 -0.797498
v -0.988011 -0.166254 -0.797498
v -0.988011 -0.583410 -1.214655
v -0.988011 -0.166254 -1.214655
v -0.570855 -1.000566 -0.380342
v -0.570855 -1.000566 -0.797498
v -0.153699 -1.000566 -0.380342
v -0.153699 -1.000566 -0.797498
v -0.570855 -0.583410 -0.380342
v -0.570855 -0.583410 -0.797498
v -0.153699 -0.583410 -0.797498
v -0.570855 -0.583410 -1.214655
v -0.570855 -0.166254 -1.214655
v -0.153699 -0.583410 -1.214655
v -0.153699 -0.166254 -1.214655
v -1.405168 0.250902 -0.380342
v -0.988011 0.250902 -0.380342
v -0.988011 0.668059 -0.380342
v -0.988011 0.250902 -0.797498
v -0.988011 0.668059 -0.797498
v -0.988011 0.250902 -1.214655
v -0.988011 0.668059 -1.214655
v -0.570855 0.668059 -0.380342
v -0.570855 0.668059 -0.797498
v -0.153699 0.668059 -0.797498
v -0.570855 1.085215 -0.380342
v -0.570855 1.085215 -0.797498
v -0.153699 1.085215 -0.380342
v -0.153699 1.085215 -0.797498
v -0.570855 0.250902 -1.214655
v -0.570855 0.668059 -1.214655
v -0.153699 0.250902 -1.214655
v -0.153699 0.668059 -1.214655
v 0.263457 -0.583410 0.871127
v 0.263457 -0.166254 0.871127
v 0.680614 -0.583410 0.871127
v 0.680614 -0.166254 0.871127
v 0.263457 -1.000566 0.453971
v 0.263457 -1.000566 0.036814
v 0.680614 -1.000566 0.036814
v 0.263457 -0.583410 0.453971
v 0.263457 -0.583410 0.036814
v 0.680614 -0.583410 0.453971
v 0.680614 -0.583410 0.036814
v 1.097770 -0.583410 0.871127
v 1.097770 -0.166254 0.871127
v 1.097770 -1.000566 0.036814
v 1.097770 -0.583410 0.453971
v 1.097770 -0.166254 0.453971
v 1.097770 -0.583410 0.036814
v 1.097770 -0.166254 0.036814
v 1.514926 -0.166254 0.453971
v 1.514926 -0.583410 0.036814
v 1.514926 -0.166254 0.036814
v 0.263457 0.250902 0.871127
v 0.263457 0.668059 0.871127
v 0.680614 0.250902 0.871127
v 0.680614 0.668059 0.871127
v 0.263457 0.668059 0.453971
v 0.263457 0.668059 0.036814
v 0.680614 0.668059 0.453971
v 0.680614 0.668059 0.036814
v 0.263457 1.085215 0.453971
v 0.263457 1.085215 0.036814
v 0.680614 1.085215 0.036814
v 1.097770 0.250902 0.871127
v 1.097770 0.668059 0.871127
v 1.097770 0.250902 0.453971
v 1.097770 0.668059 0.453971
v 1.097770 0.250902 0.036814
v 1.097770 0.668059 0.036814
v 1.514926 0.250902 0.453971
v 1.514926 0.250902 0.036814
v 1.514926 0.668059 0.036814
v 1.097770 1.085215 0.036814
v 0.263457 -1.000566 -0.380342
v 0.263457 -1.000566 -0.797498
v 0.680614 -1.000566 -0.380342
v 0.680614 -1.000566 -0.797498
v 0.263457 -0.583410 -0.797498
v 0.680614 -0.583410 -0.797498
v 0.263457 -0.583410 -1.214655
v 0.263457 -0.166254 -1.214655
v 0.680614 -0.583410 -1.214655
v 0.680614 -0.166254 -1.214655
v 1.097770 -1.000566 -0.380342
v 1.097770 -1.000566 -0.797498
v 1.097770 -0.583410 -0.380342
v 1.097770 -0.583410 -0.797498
v 1.097770 -0.166254 -0.797498
v 1.514926 -0.583410 -0.380342
v 1.514926 -0.166254 -0.380342
v 1.514926 -0.583410 -0.797498
v 1.514926 -0.166254 -0.797498
v 1.097770 -0.583410 -1.214655
v 1.097770 -0.166254 -1.214655
v 1.514926 -0.166254 -1.214655
v 0.263457 0.668059 -0.797498
v 0.680614 0.668059 -0.797498
v 0.263457 1.085215 -0.380342
v 0.263457 1.085215 -0.797498
v 0.680614 1.085215 -0.380342
v 0.680614 1.085215 -0.797498
v 0.263457 0.250902 -1.214655
v 0.263457 0.668059 -1.214655
v 0.680614 0.250902 -1.214655
v 0.680614 0.668059 -1.214655
v 1.097770 0.668059 -0.380342
v 1.097770 0.250902 -0.797498
v 1.097770 0.668059 -0.797498
v 1.514926 0.250902 -0.380342
v 1.514926 0.668059 -0.380342
v 1.514926 0.250902 -0.797498
v 1.514926 0.668059 -0.797498
v 1.097770 1.085215 -0.380342
v 1.097770 1.085215 -0.797498
v 1.097770 0.250902 -1.214655
v 1.097770 0.668059 -1.214655
v 1.514926 0.250902 -1.214655
vn -1.0000 -0.0000 -0.0000
vn -0.0000 -0.0000 1.0000
vn -0.0000 -0.0000 -1.0000
vn -0.0000 -1.0000 -0.0000
vn -0.0000 1.0000 -0.0000
vn 1.0000 -0.0000 -0.0000
s 0
f 4//1 5//1 7//1 6//1
f 4//2 8//2 9//2 5//2
f 7//3 11//3 10//3 6//3
f 4//4 6//4 10//4 8//4
f 12//2 14//2 15//2 13//2
f 16//4 17//4 19//4 18//4
f 2//2 12//2 13//2 3//2
f 8//4 10//4 21//4 20//4
f 2//1 3//1 9//1 8//1
f 1//4 5//4 9//4 3//4
f 12//4 20//4 22//4 14//4
f 16//1 20//1 21//1 17//1
f 16//2 18//2 22//2 20//2
f 2//4 8//4 20//4 12//4
f 26//1 27//1 29//1 28//1
f 26//2 30//2 31//2 27//2
f 29//3 33//3 32//3 28//3
f 31//5 33//5 29//5 27//5
f 38//2 41//2 42//2 39//2
f 45//5 46//5 44//5 43//5
f 24//2 34//2 35//2 25//2
f 39//5 40//5 33//5 31//5
f 24//1 25//1 31//1 30//1
f 24//5 30//5 26//5 23//5
f 38//6 39//6 35//6 34//6
f 36//1 37//1 42//1 41//1
f 36//5 41//5 38//5 34//5
f 39//1 43//1 44//1 40//1
f 39//2 42//2 45//2 43//2
f 35//5 39//5 31//5 25//5
f 48//1 49//1 51//1 50//1
f 54//4 55//4 57//4 56//4
f 62//3 64//3 63//3 61//3
f 48//4 50//4 59//4 58//4
f 53//3 62//3 61//3 52//3
f 50//1 51//1 53//1 52//1
f 59//4 61//4 63//4 60//4
f 54//1 58//1 59//1 55//1
f 59//3 60//3 57//3 55//3
f 50//4 52//4 61//4 59//4
f 66//1 67//1 69//1 68//1
f 77//5 78//5 76//5 75//5
f 80//3 82//3 81//3 79//3
f 72//5 73//5 69//5 67//5
f 71//3 80//3 79//3 70//3
f 68//1 69//1 71//1 70//1
f 74//5 82//5 80//5 73//5
f 72//1 75//1 76//1 73//1
f 76//3 78//3 74//3 73//3
f 73//5 80//5 71//5 69//5
f 83//2 85//2 86//2 84//2
f 90//4 91//4 93//4 92//4
f 99//6 100//6 98//6 97//6
f 99//2 102//2 103//2 100//2
f 98//4 100//4 103//4 101//4
f 85//2 94//2 95//2 86//2
f 92//4 93//4 99//4 97//4
f 83//4 90//4 92//4 85//4
f 97//6 98//6 95//6 94//6
f 88//6 91//6 90//6 87//6
f 88//2 89//2 93//2 91//2
f 89//2 96//2 99//2 93//2
f 85//4 92//4 97//4 94//4
f 104//2 106//2 107//2 105//2
f 110//5 111//5 109//5 108//5
f 119//6 120//6 118//6 117//6
f 119//2 122//2 123//2 120//2
f 121//5 122//5 119//5 117//5
f 106//2 115//2 116//2 107//2
f 118//5 120//5 111//5 110//5
f 107//5 110//5 108//5 105//5
f 117//6 118//6 116//6 115//6
f 109//6 113//6 112//6 108//6
f 109//2 111//2 114//2 113//2
f 111//2 120//2 124//2 114//2
f 116//5 118//5 110//5 107//5
f 125//4 126//4 128//4 127//4
f 132//3 134//3 133//3 131//3
f 142//6 143//6 141//6 140//6
f 139//3 143//3 142//3 138//3
f 137//4 138//4 142//4 140//4
f 127//4 128//4 136//4 135//4
f 134//3 145//3 144//3 133//3
f 129//4 131//4 133//4 130//4
f 144//6 145//6 139//6 138//6
f 139//4 145//4 146//4 143//4
f 129//3 130//3 128//3 126//3
f 136//6 138//6 137//6 135//6
f 130//3 138//3 136//3 128//3
f 130//4 133//4 144//4 138//4
f 151//5 152//5 150//5 149//5
f 154//3 156//3 155//3 153//3
f 162//6 163//6 161//6 160//6
f 159//3 163//3 162//3 158//3
f 161//5 163//5 159//5 157//5
f 164//5 165//5 152//5 151//5
f 156//3 167//3 166//3 155//3
f 148//5 156//5 154//5 147//5
f 166//6 167//6 159//6 158//6
f 162//5 168//5 166//5 158//5
f 150//3 152//3 148//3 147//3
f 159//6 165//6 164//6 157//6
f 152//3 165//3 159//3 148//3
f 159//5 167//5 156//5 148//5
f 14//2 83//2 84//2 15//2
f 18//4 19//4 88//4 87//4
f 18//2 87//2 90//2 22//2
f 14//4 22//4 90//4 83//4
f 36//2 104//2 105//2 37//2
f 112//5 113//5 46//5 45//5
f 42//2 108//2 112//2 45//2
f 105//5 108//5 42//5 37//5
f 56//4 57//4 126//4 125//4
f 64//3 132//3 131//3 63//3
f 60//3 129//3 126//3 57//3
f 60//4 63//4 131//4 129//4
f 149//5 150//5 78//5 77//5
f 82//3 154//3 153//3 81//3
f 78//3 150//3 147//3 74//3
f 147//5 154//5 82//5 74//5
f 17//4 54//4 56//4 19//4
f 10//1 11//1 49//1 48//1
f 7//4 47//4 49//4 11//4
f 17//1 21//1 58//1 54//1
f 10//4 48//4 58//4 21//4
f 88//4 125//4 127//4 89//4
f 140//6 141//6 103//6 102//6
f 99//4 137//4 140//4 102//4
f 135//6 137//6 99//6 96//6
f 89//4 127//4 135//4 96//4
f 32//1 33//1 67//1 66//1
f 32//5 66//5 65//5 28//5
f 46//5 77//5 75//5 44//5
f 40//1 44//1 75//1 72//1
f 40//5 72//5 67//5 33//5
f 160//6 161//6 123//6 122//6
f 123//5 161//5 157//5 120//5
f 114//5 151//5 149//5 113//5
f 157//6 164//6 124//6 120//6
f 124//5 164//5 151//5 114//5
f 1//2 3//2 24//2 23//2
f 5//1 26//1 28//1 7//1
f 13//2 15//2 36//2 34//2
f 1//1 23//1 26//1 5//1
f 3//2 13//2 34//2 24//2
f 49//1 66//1 68//1 51//1
f 65//3 66//3 49//3 47//3
f 79//3 81//3 64//3 62//3
f 51//1 68//1 70//1 53//1
f 70//3 79//3 62//3 53//3
f 84//2 86//2 106//2 104//2
f 103//6 122//6 121//6 101//6
f 98//2 101//2 121//2 117//2
f 98//6 117//6 115//6 95//6
f 86//2 95//2 115//2 106//2
f 153//3 155//3 134//3 132//3
f 143//6 162//6 160//6 141//6
f 166//3 168//3 146//3 145//3
f 146//6 168//6 162//6 143//6
f 155//3 166//3 145//3 134//3
f 7//1 28//1 65//1 47//1
f 141//6 160//6 122//6 103//6
f 15//2 84//2 104//2 36//2
f 81//3 153//3 132//3 64//3
f 19//4 56//4 125//4 88//4
f 113//5 149//5 77//5 46//5
